<svg xmlns="http://www.w3.org/2000/svg" xmlns:xlink="http://www.w3.org/1999/xlink" width="1280" zoomAndPan="magnify" viewBox="0 0 960 179.999997" height="240" preserveAspectRatio="xMidYMid meet" version="1.0"><defs><g/><clipPath id="184ef87eed"><path d="M 0 13.488281 L 159.367188 13.488281 L 159.367188 55 L 0 55 Z M 0 13.488281 " clip-rule="nonzero"/></clipPath><clipPath id="3b6bb05928"><path d="M 133 113 L 159.367188 113 L 159.367188 131 L 133 131 Z M 133 113 " clip-rule="nonzero"/></clipPath><clipPath id="58cc50960a"><path d="M 49 72 L 130 72 L 130 166.785156 L 49 166.785156 Z M 49 72 " clip-rule="nonzero"/></clipPath></defs><g fill="#000000" fill-opacity="1"><g transform="translate(176.094711, 105.212817)"><g><path d="M 18.03125 0.578125 C 14.90625 0.578125 11.878906 0.132812 8.953125 -0.75 C 6.035156 -1.644531 3.726562 -2.828125 2.03125 -4.296875 L 4.640625 -10.140625 C 6.296875 -8.828125 8.332031 -7.753906 10.75 -6.921875 C 13.164062 -6.097656 15.59375 -5.6875 18.03125 -5.6875 C 21.050781 -5.6875 23.300781 -6.164062 24.78125 -7.125 C 26.269531 -8.09375 27.015625 -9.367188 27.015625 -10.953125 C 27.015625 -12.117188 26.597656 -13.078125 25.765625 -13.828125 C 24.941406 -14.578125 23.890625 -15.164062 22.609375 -15.59375 C 21.335938 -16.019531 19.597656 -16.503906 17.390625 -17.046875 C 14.296875 -17.785156 11.789062 -18.519531 9.875 -19.25 C 7.96875 -19.988281 6.328125 -21.140625 4.953125 -22.703125 C 3.585938 -24.265625 2.90625 -26.378906 2.90625 -29.046875 C 2.90625 -31.285156 3.507812 -33.320312 4.71875 -35.15625 C 5.9375 -37 7.773438 -38.460938 10.234375 -39.546875 C 12.691406 -40.628906 15.695312 -41.171875 19.25 -41.171875 C 21.726562 -41.171875 24.164062 -40.859375 26.5625 -40.234375 C 28.957031 -39.617188 31.023438 -38.734375 32.765625 -37.578125 L 30.390625 -31.71875 C 28.609375 -32.757812 26.75 -33.550781 24.8125 -34.09375 C 22.882812 -34.632812 21.007812 -34.90625 19.1875 -34.90625 C 16.21875 -34.90625 14.003906 -34.398438 12.546875 -33.390625 C 11.097656 -32.390625 10.375 -31.054688 10.375 -29.390625 C 10.375 -28.234375 10.789062 -27.285156 11.625 -26.546875 C 12.457031 -25.816406 13.507812 -25.238281 14.78125 -24.8125 C 16.0625 -24.382812 17.800781 -23.90625 20 -23.375 C 23.019531 -22.675781 25.492188 -21.945312 27.421875 -21.1875 C 29.359375 -20.4375 31.007812 -19.285156 32.375 -17.734375 C 33.75 -16.191406 34.4375 -14.109375 34.4375 -11.484375 C 34.4375 -9.242188 33.828125 -7.210938 32.609375 -5.390625 C 31.398438 -3.578125 29.554688 -2.128906 27.078125 -1.046875 C 24.609375 0.0351562 21.59375 0.578125 18.03125 0.578125 Z M 18.03125 0.578125 "/></g></g></g><g fill="#000000" fill-opacity="1"><g transform="translate(212.559417, 105.212817)"><g><path d="M 19.421875 -16.984375 L 12.984375 -10.375 L 12.984375 0 L 5.453125 0 L 5.453125 -40.59375 L 12.984375 -40.59375 L 12.984375 -19.765625 L 33.046875 -40.59375 L 41.515625 -40.59375 L 24.46875 -22.4375 L 42.5625 0 L 33.75 0 Z M 19.421875 -16.984375 "/></g></g></g><g fill="#000000" fill-opacity="1"><g transform="translate(254.821381, 105.212817)"><g><path d="M 5.453125 -40.59375 L 12.984375 -40.59375 L 12.984375 0 L 5.453125 0 Z M 5.453125 -40.59375 "/></g></g></g><g fill="#000000" fill-opacity="1"><g transform="translate(273.314615, 105.212817)"><g><path d="M 5.453125 -40.59375 L 12.984375 -40.59375 L 12.984375 -6.375 L 34.203125 -6.375 L 34.203125 0 L 5.453125 0 Z M 5.453125 -40.59375 "/></g></g></g><g fill="#000000" fill-opacity="1"><g transform="translate(308.040149, 105.212817)"><g><path d="M 5.453125 -40.59375 L 12.984375 -40.59375 L 12.984375 -6.375 L 34.203125 -6.375 L 34.203125 0 L 5.453125 0 Z M 5.453125 -40.59375 "/></g></g></g><g fill="#000000" fill-opacity="1"><g transform="translate(342.765684, 105.212817)"><g><path d="M 24.234375 0.578125 C 20.140625 0.578125 16.4375 -0.316406 13.125 -2.109375 C 9.820312 -3.910156 7.234375 -6.394531 5.359375 -9.5625 C 3.484375 -12.738281 2.546875 -16.316406 2.546875 -20.296875 C 2.546875 -24.273438 3.492188 -27.847656 5.390625 -31.015625 C 7.285156 -34.191406 9.882812 -36.675781 13.1875 -38.46875 C 16.5 -40.269531 20.203125 -41.171875 24.296875 -41.171875 C 27.617188 -41.171875 30.648438 -40.585938 33.390625 -39.421875 C 36.140625 -38.265625 38.460938 -36.585938 40.359375 -34.390625 L 35.484375 -29.796875 C 32.546875 -32.972656 28.929688 -34.5625 24.640625 -34.5625 C 21.859375 -34.5625 19.363281 -33.953125 17.15625 -32.734375 C 14.957031 -31.515625 13.238281 -29.820312 12 -27.65625 C 10.757812 -25.488281 10.140625 -23.035156 10.140625 -20.296875 C 10.140625 -17.546875 10.757812 -15.085938 12 -12.921875 C 13.238281 -10.765625 14.957031 -9.078125 17.15625 -7.859375 C 19.363281 -6.640625 21.859375 -6.03125 24.640625 -6.03125 C 28.929688 -6.03125 32.546875 -7.632812 35.484375 -10.84375 L 40.359375 -6.203125 C 38.460938 -4.003906 36.128906 -2.320312 33.359375 -1.15625 C 30.597656 0 27.554688 0.578125 24.234375 0.578125 Z M 24.234375 0.578125 "/></g></g></g><g fill="#000000" fill-opacity="1"><g transform="translate(384.911711, 105.212817)"><g><path d="M 24.40625 0.578125 C 20.269531 0.578125 16.539062 -0.316406 13.21875 -2.109375 C 9.894531 -3.910156 7.285156 -6.40625 5.390625 -9.59375 C 3.492188 -12.78125 2.546875 -16.347656 2.546875 -20.296875 C 2.546875 -24.234375 3.492188 -27.796875 5.390625 -30.984375 C 7.285156 -34.179688 9.894531 -36.675781 13.21875 -38.46875 C 16.539062 -40.269531 20.269531 -41.171875 24.40625 -41.171875 C 28.539062 -41.171875 32.269531 -40.269531 35.59375 -38.46875 C 38.925781 -36.675781 41.535156 -34.191406 43.421875 -31.015625 C 45.316406 -27.847656 46.265625 -24.273438 46.265625 -20.296875 C 46.265625 -16.316406 45.316406 -12.738281 43.421875 -9.5625 C 41.535156 -6.394531 38.925781 -3.910156 35.59375 -2.109375 C 32.269531 -0.316406 28.539062 0.578125 24.40625 0.578125 Z M 24.40625 -6.03125 C 27.113281 -6.03125 29.550781 -6.640625 31.71875 -7.859375 C 33.882812 -9.078125 35.582031 -10.773438 36.8125 -12.953125 C 38.050781 -15.140625 38.671875 -17.585938 38.671875 -20.296875 C 38.671875 -23.003906 38.050781 -25.445312 36.8125 -27.625 C 35.582031 -29.8125 33.882812 -31.515625 31.71875 -32.734375 C 29.550781 -33.953125 27.113281 -34.5625 24.40625 -34.5625 C 21.707031 -34.5625 19.273438 -33.953125 17.109375 -32.734375 C 14.941406 -31.515625 13.238281 -29.8125 12 -27.625 C 10.757812 -25.445312 10.140625 -23.003906 10.140625 -20.296875 C 10.140625 -17.585938 10.757812 -15.140625 12 -12.953125 C 13.238281 -10.773438 14.941406 -9.078125 17.109375 -7.859375 C 19.273438 -6.640625 21.707031 -6.03125 24.40625 -6.03125 Z M 24.40625 -6.03125 "/></g></g></g><g fill="#000000" fill-opacity="1"><g transform="translate(433.724547, 105.212817)"><g><path d="M 41.515625 -40.59375 L 41.515625 0 L 35.3125 0 L 12.9375 -27.484375 L 12.9375 0 L 5.453125 0 L 5.453125 -40.59375 L 11.65625 -40.59375 L 34.03125 -13.109375 L 34.03125 -40.59375 Z M 41.515625 -40.59375 "/></g></g></g><g fill="#000000" fill-opacity="1"><g transform="translate(480.682274, 105.212817)"><g><path d="M 41.515625 -40.59375 L 41.515625 0 L 35.3125 0 L 12.9375 -27.484375 L 12.9375 0 L 5.453125 0 L 5.453125 -40.59375 L 11.65625 -40.59375 L 34.03125 -13.109375 L 34.03125 -40.59375 Z M 41.515625 -40.59375 "/></g></g></g><g fill="#000000" fill-opacity="1"><g transform="translate(527.640001, 105.212817)"><g><path d="M 35.890625 -6.3125 L 35.890625 0 L 5.453125 0 L 5.453125 -40.59375 L 35.078125 -40.59375 L 35.078125 -34.265625 L 12.984375 -34.265625 L 12.984375 -23.71875 L 32.59375 -23.71875 L 32.59375 -17.515625 L 12.984375 -17.515625 L 12.984375 -6.3125 Z M 35.890625 -6.3125 "/></g></g></g><g fill="#000000" fill-opacity="1"><g transform="translate(566.481602, 105.212817)"><g><path d="M 24.234375 0.578125 C 20.140625 0.578125 16.4375 -0.316406 13.125 -2.109375 C 9.820312 -3.910156 7.234375 -6.394531 5.359375 -9.5625 C 3.484375 -12.738281 2.546875 -16.316406 2.546875 -20.296875 C 2.546875 -24.273438 3.492188 -27.847656 5.390625 -31.015625 C 7.285156 -34.191406 9.882812 -36.675781 13.1875 -38.46875 C 16.5 -40.269531 20.203125 -41.171875 24.296875 -41.171875 C 27.617188 -41.171875 30.648438 -40.585938 33.390625 -39.421875 C 36.140625 -38.265625 38.460938 -36.585938 40.359375 -34.390625 L 35.484375 -29.796875 C 32.546875 -32.972656 28.929688 -34.5625 24.640625 -34.5625 C 21.859375 -34.5625 19.363281 -33.953125 17.15625 -32.734375 C 14.957031 -31.515625 13.238281 -29.820312 12 -27.65625 C 10.757812 -25.488281 10.140625 -23.035156 10.140625 -20.296875 C 10.140625 -17.546875 10.757812 -15.085938 12 -12.921875 C 13.238281 -10.765625 14.957031 -9.078125 17.15625 -7.859375 C 19.363281 -6.640625 21.859375 -6.03125 24.640625 -6.03125 C 28.929688 -6.03125 32.546875 -7.632812 35.484375 -10.84375 L 40.359375 -6.203125 C 38.460938 -4.003906 36.128906 -2.320312 33.359375 -1.15625 C 30.597656 0 27.554688 0.578125 24.234375 0.578125 Z M 24.234375 0.578125 "/></g></g></g><g fill="#000000" fill-opacity="1"><g transform="translate(608.627618, 105.212817)"><g><path d="M 13.6875 -34.203125 L 0.234375 -34.203125 L 0.234375 -40.59375 L 34.671875 -40.59375 L 34.671875 -34.203125 L 21.21875 -34.203125 L 21.21875 0 L 13.6875 0 Z M 13.6875 -34.203125 "/></g></g></g><path stroke-linecap="butt" transform="matrix(0.758894, 0, 0, 0.758894, 671.958424, 12.213314)" fill="none" stroke-linejoin="miter" d="M 88.691125 123.295062 C 91.630228 125.755467 93.483253 128.576182 94.250199 131.757208 C 95.037734 134.933086 94.605362 137.897925 92.958229 140.646578 C 91.28536 143.565092 88.860986 145.39238 85.67996 146.13359 C 82.504082 146.8748 78.998777 146.504195 75.174341 145.021775 C 67.839452 141.984874 60.787664 136.55963 54.024124 128.746043 L 49.47392 123.439187 C 47.034104 120.618471 44.583994 117.761725 42.123589 114.868948 C 39.683773 111.981318 37.249105 109.10913 34.809289 106.267826 C 34.61884 105.979577 34.418095 105.691329 34.201909 105.408228 C 34.011459 105.094244 33.815862 104.749375 33.625413 104.368476 C 33.434963 103.864041 33.244513 103.519173 33.054063 103.328723 L 32.158435 101.856598 L 28.78696 104.224351 L 28.78696 111.394527 C 28.78696 114.235831 28.78696 117.035957 28.78696 119.78461 C 28.78696 122.533263 28.78696 125.3128 28.78696 128.133515 L 28.78696 129.034291 C 28.78696 130.202726 28.761223 131.458665 28.714897 132.796961 C 28.668572 134.10952 28.550184 135.355164 28.354587 136.523599 C 27.8553 139.056066 26.769222 141.161307 25.096352 142.834177 C 23.444072 144.507046 21.436629 145.438706 19.074023 145.629155 C 16.732005 145.917404 14.554702 145.474737 12.547258 144.301155 C 10.539815 143.13272 9.139752 141.470145 8.352217 139.318577 C 6.416835 134.325706 5.449145 129.821827 5.449145 125.80694 C 5.449145 114.261568 5.521207 102.66987 5.665331 91.031846 C 5.809455 79.368086 5.974168 67.858745 6.164618 56.508969 L 6.164618 55.036844 C 6.164618 52.766889 6.653611 50.224128 7.636743 47.403413 C 9.000775 43.17234 11.543537 41.118571 15.270175 41.236959 C 19.094612 41.32961 21.452071 43.326759 22.332257 47.223257 C 22.908754 49.591011 23.387452 51.969059 23.768351 54.357402 C 24.174987 56.745745 24.519856 59.175266 24.808104 61.635671 L 25.415484 65.146123 C 25.611081 66.412356 25.775795 67.668295 25.919919 68.913939 C 26.064043 70.1287 26.182431 71.42067 26.280229 72.784702 C 26.470679 74.169323 26.614803 75.497324 26.707454 76.763557 L 27.031733 79.558536 L 30.259085 77.190782 C 30.830434 76.809883 31.273101 76.465014 31.581938 76.15103 L 69.296135 42.096556 C 69.512321 41.906106 69.908663 41.617858 70.480012 41.236959 L 70.76826 41.056804 C 73.800014 39.121422 76.744264 38.200057 79.585569 38.297856 C 82.43202 38.390507 84.738006 39.564089 86.503527 41.808308 C 88.346257 44.150325 88.989668 46.770296 88.438908 49.663073 C 87.913884 52.550703 86.338814 55.124348 83.708548 57.368567 C 80.769445 59.828972 77.75828 62.279082 74.675054 64.718898 C 71.591827 67.153566 68.534336 69.603676 65.497435 72.069228 C 63.922364 73.237663 62.342146 74.431835 60.767075 75.651742 C 59.212593 76.87165 57.658111 78.112147 56.10363 79.378381 C 55.027846 80.171063 54.003535 81.004924 53.020403 81.890258 C 52.042418 82.775592 51.01296 83.655779 49.937176 84.541113 L 45.531095 88.200836 L 47.85767 90.419319 C 48.264306 90.707567 48.614322 91.00611 48.897423 91.320094 C 49.185671 91.603195 49.484214 91.845118 49.793052 92.035568 C 51.851968 93.682701 53.869706 95.319539 55.851412 96.946083 C 57.858856 98.572627 59.90233 100.209465 61.981835 101.856598 C 66.47542 105.392786 70.948415 108.954711 75.390527 112.542373 C 79.863522 116.104298 84.295339 119.686812 88.691125 123.295062 Z M 88.691125 123.295062 " stroke="#7d6400" stroke-width="11.01315" stroke-opacity="1" stroke-miterlimit="4"/><g fill="#f9de70" fill-opacity="1"><g transform="translate(671.958424, 125.288584)"><g><path d="M 67.3125 -19.5 C 69.539062 -17.644531 70.953125 -15.507812 71.546875 -13.09375 C 72.140625 -10.675781 71.804688 -8.429688 70.546875 -6.359375 C 69.273438 -4.128906 67.429688 -2.734375 65.015625 -2.171875 C 62.609375 -1.617188 59.957031 -1.898438 57.0625 -3.015625 C 51.488281 -5.316406 46.140625 -9.4375 41.015625 -15.375 L 37.546875 -19.390625 C 35.691406 -21.546875 33.835938 -23.71875 31.984375 -25.90625 C 30.128906 -28.101562 28.269531 -30.273438 26.40625 -32.421875 C 26.257812 -32.648438 26.109375 -32.875 25.953125 -33.09375 C 25.804688 -33.320312 25.660156 -33.582031 25.515625 -33.875 C 25.367188 -34.25 25.222656 -34.507812 25.078125 -34.65625 L 24.40625 -35.765625 L 21.84375 -33.984375 L 21.84375 -28.53125 C 21.84375 -26.375 21.84375 -24.253906 21.84375 -22.171875 C 21.84375 -20.097656 21.84375 -17.984375 21.84375 -15.828125 L 21.84375 -15.15625 C 21.84375 -14.257812 21.820312 -13.3125 21.78125 -12.3125 C 21.75 -11.3125 21.65625 -10.363281 21.5 -9.46875 C 21.132812 -7.539062 20.316406 -5.941406 19.046875 -4.671875 C 17.785156 -3.410156 16.265625 -2.707031 14.484375 -2.5625 C 12.703125 -2.34375 11.050781 -2.675781 9.53125 -3.5625 C 8.007812 -4.457031 6.953125 -5.722656 6.359375 -7.359375 C 4.867188 -11.140625 4.125 -14.554688 4.125 -17.609375 C 4.125 -26.367188 4.175781 -35.171875 4.28125 -44.015625 C 4.394531 -52.859375 4.53125 -61.585938 4.6875 -70.203125 L 4.6875 -71.3125 C 4.6875 -73.03125 5.054688 -74.960938 5.796875 -77.109375 C 6.835938 -80.304688 8.769531 -81.867188 11.59375 -81.796875 C 14.488281 -81.722656 16.269531 -80.195312 16.9375 -77.21875 C 17.382812 -75.4375 17.753906 -73.632812 18.046875 -71.8125 C 18.347656 -70 18.609375 -68.164062 18.828125 -66.3125 L 19.28125 -63.625 C 19.425781 -62.664062 19.550781 -61.71875 19.65625 -60.78125 C 19.769531 -59.851562 19.867188 -58.875 19.953125 -57.84375 C 20.097656 -56.800781 20.207031 -55.796875 20.28125 -54.828125 L 20.5 -52.703125 L 22.953125 -54.5 C 23.398438 -54.789062 23.734375 -55.046875 23.953125 -55.265625 L 52.59375 -81.125 C 52.75 -81.269531 53.046875 -81.492188 53.484375 -81.796875 L 53.71875 -81.90625 C 56.019531 -83.394531 58.242188 -84.097656 60.390625 -84.015625 C 62.546875 -83.941406 64.296875 -83.050781 65.640625 -81.34375 C 67.046875 -79.5625 67.546875 -77.570312 67.140625 -75.375 C 66.734375 -73.1875 65.523438 -71.238281 63.515625 -69.53125 C 61.285156 -67.675781 59 -65.816406 56.65625 -63.953125 C 54.320312 -62.097656 52.003906 -60.242188 49.703125 -58.390625 C 48.515625 -57.503906 47.328125 -56.59375 46.140625 -55.65625 C 44.953125 -54.726562 43.757812 -53.785156 42.5625 -52.828125 C 41.75 -52.234375 40.96875 -51.597656 40.21875 -50.921875 C 39.476562 -50.253906 38.703125 -49.585938 37.890625 -48.921875 L 34.546875 -46.140625 L 36.328125 -44.46875 C 36.628906 -44.238281 36.890625 -44.007812 37.109375 -43.78125 C 37.328125 -43.5625 37.550781 -43.378906 37.78125 -43.234375 C 39.34375 -41.972656 40.882812 -40.726562 42.40625 -39.5 C 43.925781 -38.28125 45.46875 -37.035156 47.03125 -35.765625 C 50.445312 -33.097656 53.84375 -30.40625 57.21875 -27.6875 C 60.601562 -24.976562 63.96875 -22.25 67.3125 -19.5 Z M 67.3125 -19.5 "/></g></g></g><path stroke-linecap="butt" transform="matrix(0.758894, 0, 0, 0.758894, 758.296379, 12.213314)" fill="none" stroke-linejoin="miter" d="M 34.955903 61.918772 C 35.645639 72.295709 35.573577 82.70353 34.739716 93.147382 C 33.900708 103.565498 32.896986 113.818901 31.728551 123.90759 L 30.832923 132.688867 C 30.544675 134.742636 29.767434 136.955971 28.5012 139.318577 C 26.133447 143.333464 22.9936 145.340907 19.071364 145.340907 C 15.463114 145.340907 12.632104 143.477588 10.573188 139.75095 C 8.020132 135.138978 6.594332 130.001982 6.311231 124.334815 C 6.022983 120.510378 5.878859 116.639616 5.878859 112.722528 C 5.878859 108.800293 5.925185 104.939825 6.022983 101.141124 C 6.022983 99.560906 6.022983 97.975541 6.022983 96.374734 C 6.022983 94.74819 6.022983 93.101057 6.022983 91.42304 L 6.022983 89.811938 L 5.451634 89.811938 C 5.544285 88.643503 5.616347 87.444185 5.662673 86.229424 C 5.714146 85.009516 5.734735 83.815345 5.734735 82.641763 C 5.925185 79.007776 6.120782 75.363494 6.311231 71.708918 C 6.501681 68.028605 6.753898 64.322556 7.062736 60.595918 C 7.443635 56.004535 8.267202 51.752873 9.533435 47.830638 C 10.516568 45.179783 12.055608 43.100278 14.160849 41.592122 C 16.266091 40.063377 18.644139 39.347903 21.294994 39.445702 C 27.080548 39.754539 30.796892 42.595843 32.444025 47.974762 C 33.710258 51.989648 34.549267 56.637652 34.955903 61.918772 Z M 34.955903 61.918772 " stroke="#80004e" stroke-width="11.01315" stroke-opacity="1" stroke-miterlimit="4"/><g fill="#ff66c4" fill-opacity="1"><g transform="translate(758.296379, 125.288584)"><g><path d="M 26.515625 -66.078125 C 27.035156 -58.203125 26.976562 -50.304688 26.34375 -42.390625 C 25.71875 -34.484375 24.960938 -26.707031 24.078125 -19.0625 L 23.40625 -12.375 C 23.175781 -10.8125 22.582031 -9.140625 21.625 -7.359375 C 19.832031 -4.304688 17.453125 -2.78125 14.484375 -2.78125 C 11.734375 -2.78125 9.582031 -4.191406 8.03125 -7.015625 C 6.09375 -10.515625 5.015625 -14.414062 4.796875 -18.71875 C 4.566406 -21.613281 4.453125 -24.546875 4.453125 -27.515625 C 4.453125 -30.492188 4.488281 -33.429688 4.5625 -36.328125 C 4.5625 -37.515625 4.5625 -38.722656 4.5625 -39.953125 C 4.5625 -41.179688 4.5625 -42.425781 4.5625 -43.6875 L 4.5625 -44.90625 L 4.125 -44.90625 C 4.195312 -45.800781 4.25 -46.710938 4.28125 -47.640625 C 4.320312 -48.566406 4.34375 -49.476562 4.34375 -50.375 C 4.488281 -53.125 4.632812 -55.890625 4.78125 -58.671875 C 4.9375 -61.453125 5.125 -64.253906 5.34375 -67.078125 C 5.644531 -70.578125 6.28125 -73.8125 7.25 -76.78125 C 7.988281 -78.789062 9.15625 -80.367188 10.75 -81.515625 C 12.351562 -82.671875 14.15625 -83.207031 16.15625 -83.125 C 20.539062 -82.90625 23.363281 -80.753906 24.625 -76.671875 C 25.59375 -73.617188 26.222656 -70.085938 26.515625 -66.078125 Z M 26.515625 -66.078125 "/></g></g></g><path stroke-linecap="butt" transform="matrix(0.758894, 0, 0, 0.758894, 796.684233, 12.213314)" fill="none" stroke-linejoin="miter" d="M 80.338067 52.241866 C 85.408148 57.234737 89.33553 63.11809 92.135656 69.88163 C 94.930635 76.619433 96.325551 83.707252 96.325551 91.139939 C 96.325551 107.101687 90.02012 119.733137 77.398964 129.034291 C 61.241619 140.888501 43.519498 147.245405 24.232601 148.105002 C 19.718427 148.321188 15.3072 147.147606 11.004065 144.589403 C 8.281148 143.13272 6.572248 140.934827 5.877364 137.995724 C 4.899378 134.552187 5.532495 130.979967 7.781861 127.273918 C 9.64518 124.242164 10.623165 121.061138 10.720964 117.741136 C 10.813615 111.574682 10.911414 105.408228 11.004065 99.241774 C 11.101863 93.049584 11.194515 86.82651 11.292313 80.562257 C 11.390112 76.356921 11.462174 72.125848 11.508499 67.874187 C 11.580561 63.617377 11.662918 59.386305 11.760716 55.180968 C 11.760716 52.241866 12.023228 49.946174 12.548252 48.299041 C 13.099012 46.626172 14.076997 45.298171 15.487355 44.320186 C 16.923449 43.337053 18.997807 42.405394 21.725871 41.525207 C 23.877438 40.830323 26.121657 40.217795 28.463674 39.692772 C 30.831427 39.147159 33.137414 38.63243 35.381632 38.153732 C 36.174315 37.937546 36.951556 37.75739 37.713355 37.613266 C 38.50089 37.474289 39.293573 37.304429 40.081108 37.113979 L 40.225232 37.973577 L 41.548086 37.973577 C 48.980773 37.685328 56.058298 38.776554 62.770364 41.236959 C 69.487578 43.671627 75.345195 47.341645 80.338067 52.241866 Z M 58.863571 106.41195 C 62.307108 104.353034 64.983699 101.54776 66.893344 97.985835 C 68.808136 94.403321 69.714059 90.553148 69.621408 86.440463 C 69.621408 82.142476 68.581655 78.184209 66.50215 74.575959 C 64.443234 70.941972 61.663697 68.049194 58.148098 65.902774 C 55.111196 64.034308 51.899287 62.793811 48.502075 62.170989 C 45.135747 61.527578 41.790009 61.002554 38.464859 60.595918 C 37.775122 60.498119 37.080238 60.405468 36.385354 60.30767 C 35.716206 60.215018 34.990438 60.11722 34.202903 60.019421 L 32.298405 59.73632 L 35.098531 118.883835 L 37.28613 117.741136 C 38.572952 117.046252 39.828891 116.413135 41.048799 115.836639 C 42.268707 115.239553 43.462878 114.642467 44.631313 114.045382 C 47.189516 112.876947 49.639627 111.682775 51.981644 110.462867 C 54.323661 109.24296 56.619352 107.89437 58.863571 106.41195 Z M 58.863571 106.41195 " stroke="#216d00" stroke-width="11.01315" stroke-opacity="1" stroke-miterlimit="4"/><g fill="#7ed957" fill-opacity="1"><g transform="translate(796.684233, 125.288584)"><g><path d="M 60.953125 -73.4375 C 64.816406 -69.644531 67.804688 -65.1875 69.921875 -60.0625 C 72.046875 -54.9375 73.109375 -49.550781 73.109375 -43.90625 C 73.109375 -31.789062 68.316406 -22.207031 58.734375 -15.15625 C 46.472656 -6.164062 33.023438 -1.335938 18.390625 -0.671875 C 14.972656 -0.523438 11.628906 -1.414062 8.359375 -3.34375 C 6.273438 -4.457031 4.972656 -6.128906 4.453125 -8.359375 C 3.710938 -10.960938 4.195312 -13.675781 5.90625 -16.5 C 7.320312 -18.800781 8.066406 -21.210938 8.140625 -23.734375 C 8.210938 -28.410156 8.285156 -33.085938 8.359375 -37.765625 C 8.429688 -42.453125 8.503906 -47.175781 8.578125 -51.9375 C 8.648438 -55.125 8.703125 -58.332031 8.734375 -61.5625 C 8.773438 -64.800781 8.835938 -68.015625 8.921875 -71.203125 C 8.921875 -73.429688 9.125 -75.175781 9.53125 -76.4375 C 9.9375 -77.707031 10.675781 -78.710938 11.75 -79.453125 C 12.832031 -80.191406 14.414062 -80.898438 16.5 -81.578125 C 18.125 -82.097656 19.828125 -82.5625 21.609375 -82.96875 C 23.398438 -83.375 25.148438 -83.765625 26.859375 -84.140625 C 27.453125 -84.285156 28.046875 -84.410156 28.640625 -84.515625 C 29.234375 -84.628906 29.828125 -84.765625 30.421875 -84.921875 L 30.53125 -84.25 L 31.53125 -84.25 C 37.175781 -84.46875 42.539062 -83.648438 47.625 -81.796875 C 52.71875 -79.941406 57.160156 -77.15625 60.953125 -73.4375 Z M 44.6875 -32.3125 C 47.289062 -33.875 49.316406 -36.007812 50.765625 -38.71875 C 52.210938 -41.4375 52.898438 -44.351562 52.828125 -47.46875 C 52.828125 -50.738281 52.046875 -53.75 50.484375 -56.5 C 48.921875 -59.25 46.800781 -61.441406 44.125 -63.078125 C 41.820312 -64.484375 39.390625 -65.425781 36.828125 -65.90625 C 34.265625 -66.394531 31.722656 -66.785156 29.203125 -67.078125 C 28.679688 -67.160156 28.160156 -67.238281 27.640625 -67.3125 C 27.117188 -67.382812 26.5625 -67.457031 25.96875 -67.53125 L 24.515625 -67.75 L 26.640625 -22.84375 L 28.3125 -23.734375 C 29.269531 -24.253906 30.210938 -24.738281 31.140625 -25.1875 C 32.078125 -25.632812 32.988281 -26.078125 33.875 -26.515625 C 35.8125 -27.410156 37.671875 -28.320312 39.453125 -29.25 C 41.234375 -30.175781 42.976562 -31.195312 44.6875 -32.3125 Z M 44.6875 -32.3125 "/></g></g></g><path stroke-linecap="butt" transform="matrix(0.758894, 0, 0, 0.758894, 883.22422, 9.857848)" fill="none" stroke-linejoin="miter" d="M 78.689716 113.618154 C 80.460384 120.572143 79.919918 126.784923 77.078614 132.256492 C 74.257899 137.733209 69.609895 141.557646 63.129457 143.729803 C 55.887219 146.262269 47.178004 147.718953 36.996663 148.104999 C 32.410428 148.321186 28.323479 147.281433 24.735818 144.985741 C 21.173893 142.664313 18.317147 140.337738 16.170726 137.995721 C 13.802973 135.339719 12.34629 132.498415 11.79553 129.461514 C 11.270506 126.424612 11.749204 123.691401 13.226476 121.251585 C 15.568493 117.144048 19.428961 115.085131 24.80788 115.085131 C 26.290299 115.085131 27.757277 115.229256 29.219108 115.517504 C 29.816193 115.707954 30.44931 115.888109 31.118458 116.052822 C 31.808195 116.196946 32.456753 116.366807 33.053839 116.557257 C 35.684104 117.344792 38.37099 117.988203 41.119643 118.492638 C 43.868296 118.971336 46.761073 118.765444 49.792827 117.88011 L 54.636428 116.413132 L 53.879776 114.80203 C 52.613543 111.765129 50.796549 109.5415 48.433943 108.131142 C 46.091926 106.695048 43.65211 105.588381 41.119643 104.795698 C 31.036101 101.763944 21.930544 96.132808 13.802973 87.912585 C 7.826969 81.84393 5.042285 75.044359 5.448921 67.513873 C 5.82982 60.05545 9.201295 53.734577 15.558199 48.551256 C 27.700657 38.580954 41.454217 35.405076 56.824026 39.013327 C 63.680217 40.588397 68.770887 44.067966 72.096037 49.446884 C 73.36227 51.691103 74.10348 54.141213 74.314519 56.797215 C 74.314519 57.559014 74.206426 58.434053 73.995387 59.412038 C 73.804937 60.390024 73.372565 61.131233 72.703417 61.635668 C 71.509246 62.521002 69.692252 62.469529 67.252436 61.491544 C 64.313334 60.317962 60.741114 59.221589 56.535778 58.192131 C 52.330442 57.16782 47.872888 57.188409 43.163117 58.264193 C 40.918899 58.742891 38.741595 59.473806 36.636353 60.451791 C 34.536259 61.429776 32.600877 62.459234 30.83021 63.535018 C 28.776441 64.703453 27.746983 66.221904 27.746983 68.085223 C 27.746983 69.953689 28.724968 71.518465 30.686085 72.784699 L 33.913436 74.684049 C 36.564291 76.25912 39.230587 77.813602 41.907178 79.342347 C 44.609506 80.850503 47.378748 82.188798 50.2252 83.357233 C 65.87811 89.621486 75.369713 99.705028 78.689716 113.618154 Z M 78.689716 113.618154 " stroke="#2b0080" stroke-width="11.013225" stroke-opacity="1" stroke-miterlimit="4"/><g fill="#8c52ff" fill-opacity="1"><g transform="translate(883.22422, 122.933117)"><g><path d="M 59.734375 -26.859375 C 61.066406 -21.578125 60.65625 -16.859375 58.5 -12.703125 C 56.34375 -8.546875 52.816406 -5.648438 47.921875 -4.015625 C 42.421875 -2.078125 35.804688 -0.960938 28.078125 -0.671875 C 24.585938 -0.523438 21.484375 -1.320312 18.765625 -3.0625 C 16.054688 -4.8125 13.890625 -6.578125 12.265625 -8.359375 C 10.472656 -10.359375 9.375 -12.507812 8.96875 -14.8125 C 8.5625 -17.125 8.914062 -19.207031 10.03125 -21.0625 C 11.8125 -24.175781 14.742188 -25.734375 18.828125 -25.734375 C 19.941406 -25.734375 21.054688 -25.625 22.171875 -25.40625 C 22.617188 -25.257812 23.101562 -25.128906 23.625 -25.015625 C 24.144531 -24.898438 24.628906 -24.769531 25.078125 -24.625 C 27.078125 -24.03125 29.117188 -23.546875 31.203125 -23.171875 C 33.285156 -22.804688 35.476562 -22.957031 37.78125 -23.625 L 41.453125 -24.734375 L 40.890625 -25.96875 C 39.929688 -28.269531 38.554688 -29.957031 36.765625 -31.03125 C 34.984375 -32.113281 33.128906 -32.953125 31.203125 -33.546875 C 23.546875 -35.847656 16.632812 -40.117188 10.46875 -46.359375 C 5.9375 -50.960938 3.820312 -56.125 4.125 -61.84375 C 4.414062 -67.488281 6.976562 -72.28125 11.8125 -76.21875 C 21.019531 -83.800781 31.457031 -86.21875 43.125 -83.46875 C 48.320312 -82.28125 52.1875 -79.640625 54.71875 -75.546875 C 55.6875 -73.835938 56.242188 -71.984375 56.390625 -69.984375 C 56.390625 -69.390625 56.3125 -68.71875 56.15625 -67.96875 C 56.007812 -67.226562 55.675781 -66.675781 55.15625 -66.3125 C 54.269531 -65.632812 52.894531 -65.671875 51.03125 -66.421875 C 48.800781 -67.304688 46.085938 -68.140625 42.890625 -68.921875 C 39.703125 -69.703125 36.328125 -69.6875 32.765625 -68.875 C 31.054688 -68.5 29.398438 -67.9375 27.796875 -67.1875 C 26.203125 -66.445312 24.738281 -65.671875 23.40625 -64.859375 C 21.84375 -63.960938 21.0625 -62.8125 21.0625 -61.40625 C 21.0625 -59.988281 21.804688 -58.800781 23.296875 -57.84375 L 25.734375 -56.390625 C 27.742188 -55.203125 29.769531 -54.03125 31.8125 -52.875 C 33.851562 -51.726562 35.953125 -50.707031 38.109375 -49.8125 C 49.992188 -45.0625 57.203125 -37.410156 59.734375 -26.859375 Z M 59.734375 -26.859375 "/></g></g></g><g clip-path="url(#184ef87eed)"><path fill="#000000" d="M 150.585938 13.488281 C 146.609375 13.488281 143.378906 16.105469 142.257812 19.714844 L 136.914062 19.714844 C 122.621094 19.714844 110.816406 30.671875 109.699219 44.871094 C 105.71875 47.984375 100.75 49.726562 95.53125 49.601562 C 91.304688 46.613281 86.457031 44.996094 81.238281 44.621094 C 80.367188 44.621094 79.375 44.621094 78.503906 44.621094 C 73.285156 44.871094 68.4375 46.613281 64.210938 49.601562 C 58.992188 49.726562 54.019531 47.984375 50.042969 44.871094 C 48.675781 30.671875 36.871094 19.714844 22.578125 19.714844 L 17.234375 19.714844 C 16.113281 16.105469 12.882812 13.488281 8.90625 13.488281 C 4.058594 13.488281 0.207031 17.347656 0.207031 22.207031 C 0.207031 27.0625 4.058594 30.921875 8.90625 30.921875 C 12.882812 30.921875 16.113281 28.308594 17.234375 24.695312 L 22.578125 24.695312 C 34.632812 24.695312 44.449219 34.160156 44.949219 46.238281 C 44.949219 46.988281 45.320312 47.609375 45.816406 47.984375 C 51.160156 52.589844 57.996094 54.957031 64.957031 54.582031 C 65.328125 54.582031 65.703125 54.457031 65.949219 54.335938 C 66.074219 54.210938 66.199219 54.210938 66.324219 54.085938 C 69.804688 51.46875 74.027344 49.851562 78.378906 49.726562 C 78.378906 49.726562 78.503906 49.726562 78.503906 49.726562 C 79.25 49.726562 79.996094 49.726562 80.742188 49.726562 C 80.742188 49.726562 80.742188 49.726562 80.863281 49.726562 C 85.339844 49.976562 89.5625 51.46875 93.042969 54.085938 C 93.292969 54.335938 93.664062 54.457031 94.039062 54.582031 C 94.164062 54.582031 94.285156 54.582031 94.410156 54.582031 C 94.910156 54.582031 95.40625 54.582031 95.777344 54.582031 C 102.363281 54.582031 108.578125 52.21875 113.550781 47.984375 C 114.171875 47.484375 114.421875 46.738281 114.421875 45.992188 C 115.042969 34.035156 124.734375 24.820312 136.789062 24.820312 L 142.136719 24.820312 C 143.253906 28.433594 146.484375 31.046875 150.460938 31.046875 C 155.308594 31.046875 159.160156 27.1875 159.160156 22.332031 C 159.160156 17.472656 155.433594 13.488281 150.585938 13.488281 Z M 8.90625 25.941406 C 6.792969 25.941406 5.179688 24.324219 5.179688 22.207031 C 5.179688 20.089844 6.792969 18.46875 8.90625 18.46875 C 11.019531 18.46875 12.632812 20.089844 12.632812 22.207031 C 12.632812 24.324219 11.019531 25.941406 8.90625 25.941406 Z M 150.585938 25.941406 C 148.472656 25.941406 146.859375 24.324219 146.859375 22.207031 C 146.859375 20.089844 148.472656 18.46875 150.585938 18.46875 C 152.699219 18.46875 154.3125 20.089844 154.3125 22.207031 C 154.3125 24.324219 152.699219 25.941406 150.585938 25.941406 Z M 150.585938 25.941406 " fill-opacity="1" fill-rule="nonzero"/></g><path fill="#000000" d="M 104.726562 83.101562 C 105.96875 80.484375 106.714844 77.496094 106.964844 74.507812 L 129.832031 74.507812 C 130.949219 78.121094 134.179688 80.734375 138.15625 80.734375 C 143.003906 80.734375 146.859375 76.875 146.859375 72.019531 C 146.859375 67.160156 143.003906 63.300781 138.15625 63.300781 C 134.179688 63.300781 130.949219 65.914062 129.832031 69.527344 L 102.117188 69.527344 L 102.117188 72.019531 C 102.117188 76.375 100.875 80.484375 98.761719 83.847656 C 99.257812 83.972656 99.753906 84.222656 100.128906 84.46875 C 101.621094 83.722656 103.109375 83.351562 104.726562 83.101562 Z M 138.15625 68.28125 C 140.269531 68.28125 141.886719 69.902344 141.886719 72.019531 C 141.886719 74.132812 140.269531 75.753906 138.15625 75.753906 C 136.046875 75.753906 134.429688 74.132812 134.429688 72.019531 C 134.429688 69.902344 136.046875 68.28125 138.15625 68.28125 Z M 138.15625 68.28125 " fill-opacity="1" fill-rule="nonzero"/><g clip-path="url(#3b6bb05928)"><path fill="#000000" d="M 150.585938 113.113281 C 146.609375 113.113281 143.378906 115.726562 142.257812 119.339844 L 136.914062 119.339844 C 135.921875 119.339844 134.800781 119.214844 133.808594 119.089844 L 133.558594 124.070312 C 134.679688 124.195312 135.671875 124.320312 136.789062 124.320312 L 142.136719 124.320312 C 143.253906 127.933594 146.484375 130.546875 150.460938 130.546875 C 155.308594 130.546875 159.160156 126.6875 159.160156 121.828125 C 159.160156 116.972656 155.433594 113.113281 150.585938 113.113281 Z M 150.585938 125.566406 C 148.472656 125.566406 146.859375 123.945312 146.859375 121.828125 C 146.859375 119.710938 148.472656 118.09375 150.585938 118.09375 C 152.699219 118.09375 154.3125 119.710938 154.3125 121.828125 C 154.3125 123.945312 152.699219 125.566406 150.585938 125.566406 Z M 150.585938 125.566406 " fill-opacity="1" fill-rule="nonzero"/></g><g clip-path="url(#58cc50960a)"><path fill="#000000" d="M 93.542969 87.957031 C 92.421875 87.957031 91.429688 88.082031 90.433594 88.457031 L 90.433594 81.980469 C 90.433594 76.5 85.960938 72.019531 80.492188 72.019531 C 75.023438 72.019531 70.550781 76.5 70.550781 81.980469 L 70.550781 116.226562 L 67.441406 112.488281 C 65.578125 110.125 62.71875 108.753906 59.738281 108.753906 C 57.375 108.753906 55.136719 109.625 53.398438 111.121094 C 49.296875 114.605469 48.675781 120.832031 52.15625 125.066406 L 70.921875 148.230469 L 71.296875 150.222656 C 72.785156 159.8125 80.863281 166.785156 90.558594 166.785156 L 108.207031 166.785156 C 118.769531 166.785156 127.34375 158.441406 127.71875 147.855469 L 129.457031 105.765625 C 129.582031 103.027344 128.589844 100.410156 126.722656 98.542969 C 124.859375 96.550781 122.375 95.554688 119.640625 95.554688 C 118.523438 95.554688 117.402344 95.804688 116.410156 96.175781 C 115.539062 91.570312 111.5625 88.082031 106.839844 88.082031 L 106.714844 88.082031 C 104.230469 88.082031 101.992188 88.953125 100.253906 90.574219 C 98.511719 89.078125 96.277344 88.082031 93.789062 88.082031 L 93.542969 88.082031 Z M 98.511719 97.796875 L 98.511719 113.113281 L 101.742188 112.863281 L 101.742188 97.796875 C 101.742188 95.054688 103.855469 92.9375 106.589844 92.9375 L 106.714844 92.9375 C 109.324219 92.9375 111.5625 95.054688 111.5625 97.796875 L 111.5625 112.242188 L 114.792969 111.992188 L 114.792969 105.265625 C 114.792969 102.527344 116.90625 100.410156 119.640625 100.410156 C 122.375 100.410156 124.613281 102.652344 124.488281 105.390625 L 122.746094 147.484375 C 122.5 155.328125 116.035156 161.679688 108.207031 161.679688 L 90.433594 161.679688 C 83.226562 161.679688 77.136719 156.449219 76.019531 149.351562 L 75.519531 145.988281 L 56.007812 121.828125 C 54.269531 119.710938 54.640625 116.597656 56.628906 114.855469 C 57.5 114.109375 58.742188 113.734375 59.859375 113.734375 C 61.351562 113.734375 62.71875 114.359375 63.714844 115.601562 L 75.644531 130.296875 L 75.644531 81.980469 C 75.644531 79.242188 77.882812 77 80.617188 77 C 83.351562 77 85.585938 79.242188 85.585938 81.980469 L 85.585938 113.984375 L 88.820312 113.734375 L 88.820312 97.796875 C 88.820312 95.054688 90.929688 92.9375 93.664062 92.9375 L 93.789062 92.9375 C 96.273438 92.9375 98.511719 95.054688 98.511719 97.796875 Z M 98.511719 97.796875 " fill-opacity="1" fill-rule="nonzero"/></g><path fill="#000000" d="M 79.746094 54.582031 C 70.175781 54.582031 62.347656 62.429688 62.347656 72.019531 C 62.347656 75.753906 63.589844 79.242188 65.578125 82.105469 L 65.578125 81.855469 C 65.578125 79.117188 66.324219 76.625 67.566406 74.507812 C 67.441406 73.636719 67.316406 72.890625 67.316406 71.894531 C 67.316406 65.042969 72.910156 59.441406 79.746094 59.441406 C 86.582031 59.441406 92.175781 65.042969 92.175781 71.894531 C 92.175781 72.140625 92.175781 72.390625 92.175781 72.640625 C 93.789062 74.757812 94.910156 77.246094 95.28125 79.863281 C 96.523438 77.496094 97.269531 74.757812 97.269531 71.894531 C 97.144531 62.429688 89.316406 54.582031 79.746094 54.582031 Z M 79.746094 54.582031 " fill-opacity="1" fill-rule="nonzero"/><path fill="#000000" d="M 44.949219 98.167969 C 44.324219 110.125 34.632812 119.339844 22.578125 119.339844 L 17.234375 119.339844 C 16.113281 115.726562 12.882812 113.113281 8.90625 113.113281 C 4.058594 113.113281 0.207031 116.972656 0.207031 121.828125 C 0.207031 126.6875 4.058594 130.546875 8.90625 130.546875 C 12.882812 130.546875 16.113281 127.933594 17.234375 124.320312 L 22.578125 124.320312 C 36.871094 124.320312 48.675781 113.363281 49.792969 99.164062 C 53.769531 96.050781 58.742188 94.308594 63.960938 94.433594 C 64.335938 94.683594 64.707031 94.929688 65.082031 95.179688 C 65.082031 95.179688 65.207031 95.179688 65.207031 95.304688 C 65.328125 95.429688 65.453125 95.429688 65.578125 95.554688 L 65.578125 89.453125 C 60.605469 85.34375 57.375 79.117188 57.375 72.140625 L 57.375 69.652344 L 29.660156 69.652344 C 28.542969 66.039062 25.3125 63.425781 21.335938 63.425781 C 16.488281 63.425781 12.632812 67.285156 12.632812 72.140625 C 12.632812 77 16.488281 80.859375 21.335938 80.859375 C 25.3125 80.859375 28.542969 78.246094 29.660156 74.632812 L 52.527344 74.632812 C 53.027344 80.484375 55.386719 85.714844 58.992188 89.949219 C 54.144531 90.820312 49.546875 92.9375 45.691406 96.175781 C 45.195312 96.550781 44.949219 97.296875 44.949219 98.167969 Z M 8.90625 125.566406 C 6.792969 125.566406 5.179688 123.945312 5.179688 121.828125 C 5.179688 119.710938 6.792969 118.09375 8.90625 118.09375 C 11.019531 118.09375 12.632812 119.710938 12.632812 121.828125 C 12.632812 123.945312 11.019531 125.566406 8.90625 125.566406 Z M 21.335938 75.753906 C 19.222656 75.753906 17.605469 74.132812 17.605469 72.019531 C 17.605469 69.902344 19.222656 68.28125 21.335938 68.28125 C 23.445312 68.28125 25.0625 69.902344 25.0625 72.019531 C 25.0625 74.132812 23.445312 75.753906 21.335938 75.753906 Z M 21.335938 75.753906 " fill-opacity="1" fill-rule="nonzero"/></svg>